<?xml version="1.0" standalone="no"?>
<!DOCTYPE svg PUBLIC "-//W3C//DTD SVG 20010904//EN"
 "http://www.w3.org/TR/2001/REC-SVG-20010904/DTD/svg10.dtd">
<svg version="1.0" xmlns="http://www.w3.org/2000/svg"
 width="70.000000pt" height="70.000000pt" viewBox="0 0 70.000000 70.000000"
 preserveAspectRatio="xMidYMid meet">
<metadata>
Created by potrace 1.14, written by Peter Selinger 2001-2017
</metadata>
<g transform="translate(0.000000,70.000000) scale(0.100000,-0.100000)"
fill="#000000" stroke="none">
<path d="M333 623 c-30 -70 -36 -87 -35 -95 1 -5 -2 -8 -8 -8 -5 0 -10 -4 -10
-9 0 -5 -8 -26 -17 -47 -9 -22 -17 -41 -18 -44 0 -3 -8 -19 -18 -36 -9 -17
-14 -34 -11 -36 2 -3 -2 -11 -11 -18 -12 -10 -15 -10 -15 3 0 20 -29 30 -46
16 -8 -6 -14 -22 -14 -35 0 -13 -4 -24 -10 -24 -5 0 -10 -7 -10 -15 0 -15 -4
-26 -29 -73 -7 -13 -10 -26 -7 -29 3 -3 -1 -12 -9 -20 -8 -8 -15 -23 -15 -33
0 -10 -5 -22 -11 -25 -6 -4 -8 -13 -5 -21 3 -8 0 -14 -8 -14 -7 0 -12 -9 -10
-23 1 -12 3 -25 3 -29 1 -5 8 -8 17 -8 8 0 12 4 9 10 -3 5 -1 10 4 10 6 0 11
11 11 25 0 14 5 25 10 25 6 0 10 9 10 20 0 11 4 20 8 20 5 0 9 6 9 13 0 19 55
151 66 158 5 4 19 -3 30 -14 l20 -20 26 66 c25 65 43 82 55 52 4 -12 10 -13
31 -3 14 6 25 18 25 26 0 12 2 12 17 1 15 -12 16 -12 8 1 -4 8 1 6 12 -5 11
-11 19 -23 16 -27 -8 -14 14 -8 27 7 7 8 17 12 22 9 5 -3 7 -9 4 -12 -3 -3 1
-14 11 -24 9 -10 13 -18 9 -18 -3 0 0 -13 9 -30 9 -16 12 -30 8 -30 -5 0 -2
-4 4 -8 7 -4 14 -17 16 -27 2 -11 12 -38 22 -60 10 -22 18 -44 16 -49 -5 -21
23 -23 40 -3 14 17 18 18 19 6 0 -28 50 -119 64 -119 18 0 14 32 -10 85 -10
22 -17 43 -16 48 1 4 -2 7 -8 7 -5 0 -10 9 -10 21 0 11 -7 27 -15 35 -13 14
-17 14 -31 0 -17 -17 -25 -20 -22 -8 0 4 -2 15 -5 25 -4 9 -10 25 -14 35 -3 9
-5 20 -5 25 1 4 -3 7 -10 7 -6 0 -9 3 -5 6 3 4 -2 23 -12 43 -11 20 -20 41
-21 46 -7 31 -71 189 -82 203 -6 6 -7 12 -4 12 4 0 1 10 -6 23 -7 12 -11 30
-9 40 1 11 -4 17 -17 17 -13 0 -25 -15 -39 -47z m61 -106 c13 -31 21 -57 17
-57 -3 0 0 -4 8 -9 9 -6 11 -16 7 -27 -7 -18 -8 -18 -24 1 -27 34 -47 36 -67
8 -17 -22 -20 -23 -31 -8 -9 13 -7 26 12 65 13 28 24 55 24 61 0 5 4 7 10 4 6
-4 7 1 3 11 -4 11 -2 15 6 13 7 -3 23 -30 35 -62z"/>
</g>
</svg>
